#!OML:ASF E:\acrobat2\Project_11_07_03\Capture day 1\Session 1\Acrobat.ASF
:FULLY-SPECIFIED
:DEGREES
297
root 11.1602 17.7572 -36.0781 6.5607 -0.636299 -1.07783
lowerback -4.31616 -0.747873 -3.03192
upperback 0.779608 -0.803556 -0.86862
thorax 3.2542 -0.448552 0.748675
lowerneck 3.85084 -2.87192 -0.956431
upperneck -1.45715 -3.72313 6.95688
head -0.958712 -1.96107 2.43477
rclavicle 1.48095e-014 1.59028e-015
rhumerus -41.9696 -0.289745 -86.2604
rradius 28.4838
rwrist 4.01632
rhand 1.72874 -46.7096
rfingers 7.12502
rthumb 27.2451 -74.7618
lclavicle 1.48095e-014 1.59028e-015
lhumerus -35.9686 -14.8768 89.0197
lradius 18.4056
lwrist 8.36153
lhand -10.7144 -9.35155
lfingers 7.12502
lthumb 15.2956 20.0629
rfemur -26.1094 0.552825 17.8848
rtibia 17.7696
rfoot -16.2138 -11.4505
rtoes 3.57717
lfemur 4.32711 -4.06523 -19.9118
ltibia 8.97214
lfoot -14.4281 -13.1849
ltoes 33.4263
298
root 11.1568 17.7408 -35.9917 6.67352 -0.515916 -1.03703
lowerback -4.28497 -0.778776 -3.04177
upperback 0.776206 -0.84609 -0.851413
thorax 3.23507 -0.469804 0.769303
lowerneck 3.92905 -2.87643 -0.933623
upperneck -1.55933 -3.71944 7.04703
head -1.00404 -1.96419 2.46431
rclavicle 1.80894e-014 -6.36111e-015
rhumerus -42.0797 -0.38829 -86.1719
rradius 28.3145
rwrist 4.16783
rhand 1.76502 -46.7236
rfingers 7.12502
rthumb 27.2798 -74.7704
lclavicle 1.80894e-014 -6.36111e-015
lhumerus -36.037 -14.9738 89.1222
lradius 18.2242
lwrist 8.22905
lhand -10.5649 -9.38571
lfingers 7.12502
lthumb 15.4396 20.0177
rfemur -26.2904 0.965548 17.7073
rtibia 16.495
rfoot -16.0224 -11.6148
rtoes 3.4968
lfemur 4.56551 -4.06554 -19.9373
ltibia 8.8684
lfoot -14.3947 -13.425
ltoes 34.041
299
root 11.1531 17.7236 -35.9024 6.79269 -0.380367 -1.0145
lowerback -4.26573 -0.808159 -3.03219
upperback 0.745893 -0.888103 -0.825138
thorax 3.19469 -0.49002 0.788566
lowerneck 4.08164 -2.88236 -0.928598
upperneck -1.6459 -3.71809 7.14646
head -1.05701 -1.96961 2.50179
rclavicle 8.44835e-015 1.35174e-014
rhumerus -42.2323 -0.496109 -86.0662
rradius 28.1045
rwrist 4.37104
rhand 1.82372 -46.7401
rfingers 7.12502
rthumb 27.336 -74.778
lclavicle 8.44835e-015 1.35174e-014
lhumerus -36.1489 -15.0327 89.2285
lradius 18.0535
lwrist 8.07105
lhand -10.4019 -9.4689
lfingers 7.12502
lthumb 15.5966 19.9223
rfemur -26.4486 1.35145 17.5457
rtibia 15.204
rfoot -15.8486 -11.7736
rtoes 3.33335
lfemur 4.80515 -4.06298 -19.933
ltibia 8.76873
lfoot -14.3792 -13.6428
ltoes 34.4876
300
root 11.149 17.7056 -35.8101 6.91088 -0.224474 -1.00046
lowerback -4.24686 -0.848112 -3.02073
upperback 0.716427 -0.944712 -0.783677
thorax 3.15619 -0.517637 0.821401
lowerneck 4.17662 -2.87801 -0.949208
upperneck -1.68501 -3.70759 7.24678
head -1.08488 -1.96837 2.54181
rclavicle 1.10325e-014 1.03368e-014
rhumerus -42.3653 -0.584411 -85.9461
rradius 27.8522
rwrist 4.61303
rhand 1.90354 -46.7665
rfingers 7.12502
rthumb 27.4123 -74.7923
lclavicle 1.10325e-014 1.03368e-014
lhumerus -36.2375 -14.9996 89.3146
lradius 17.8835
lwrist 7.86776
lhand -10.2682 -9.56485
lfingers 7.12502
lthumb 15.7253 19.8162
rfemur -26.5677 1.72789 17.3846
rtibia 13.9056
rfoot -15.727 -11.9254
rtoes 3.07092
lfemur 5.05307 -4.05775 -19.9094
ltibia 8.67567
lfoot -14.3769 -13.8526
ltoes 34.7513
301
root 11.1443 17.6871 -35.715 7.02816 -0.0443203 -0.987309
lowerback -4.24125 -0.882234 -2.99213
upperback 0.692285 -0.993379 -0.755459
thorax 3.12987 -0.541065 0.831353
lowerneck 4.24697 -2.88497 -0.950568
upperneck -1.69654 -3.71282 7.35516
head -1.09914 -1.97429 2.58021
rclavicle -4.77083e-015 8.74653e-015
rhumerus -42.4938 -0.741829 -85.8172
rradius 27.5819
rwrist 4.89273
rhand 2.00921 -46.8155
rfingers 7.12502
rthumb 27.5134 -74.8253
lclavicle -4.77083e-015 8.74653e-015
lhumerus -36.3056 -14.9768 89.3841
lradius 17.72
lwrist 7.65514
lhand -10.195 -9.63072
lfingers 7.12502
lthumb 15.7959 19.7448
rfemur -26.6455 2.11807 17.2064
rtibia 12.6088
rfoot -15.6709 -12.0882
rtoes 2.69224
lfemur 5.30705 -4.05179 -19.8751
ltibia 8.59089
lfoot -14.3754 -14.0685
ltoes 34.8611
302
root 11.1391 17.6684 -35.6173 7.14357 0.158286 -0.979575
lowerback -4.23677 -0.920696 -2.95155
upperback 0.674129 -1.04831 -0.725817
thorax 3.11041 -0.567555 0.835552
lowerneck 4.26884 -2.89647 -0.950763
upperneck -1.66896 -3.72712 7.45799
head -1.09206 -1.98294 2.61475
rclavicle 7.65321e-015 6.36111e-015
rhumerus -42.6202 -0.907093 -85.6852
rradius 27.3277
rwrist 5.15356
rhand 2.07057 -46.8426
rfingers 7.12502
rthumb 27.5721 -74.843
lclavicle 7.65321e-015 6.36111e-015
lhumerus -36.3363 -14.9365 89.4456
lradius 17.5479
lwrist 7.45681
lhand -10.1632 -9.61608
lfingers 7.12502
lthumb 15.8265 19.757
rfemur -26.6854 2.55557 17.0059
rtibia 11.313
rfoot -15.6894 -12.2915
rtoes 2.28059
lfemur 5.5689 -4.04899 -19.8247
ltibia 8.51012
lfoot -14.3797 -14.2863
ltoes 34.8148
303
root 11.1331 17.6497 -35.5176 7.25958 0.388445 -0.966029
lowerback -4.23826 -0.965511 -2.91749
upperback 0.6651 -1.11099 -0.69341
thorax 3.10419 -0.598288 0.845516
lowerneck 4.25307 -2.91691 -0.951959
upperneck -1.60879 -3.75619 7.55126
head -1.06736 -1.99735 2.64497
rclavicle 2.28602e-015 -7.95139e-016
rhumerus -42.7446 -1.06802 -85.5497
rradius 27.109
rwrist 5.36104
rhand 2.08315 -46.8557
rfingers 7.12502
rthumb 27.5841 -74.8542
lclavicle 2.28602e-015 -7.95139e-016
lhumerus -36.3261 -14.8968 89.5108
lradius 17.3747
lwrist 7.29851
lhand -10.1501 -9.52664
lfingers 7.12502
lthumb 15.8391 19.8455
rfemur -26.6945 3.05239 16.7634
rtibia 10.0481
rfoot -15.8078 -12.5675
rtoes 1.91389
lfemur 5.82795 -4.0529 -19.7703
ltibia 8.44379
lfoot -14.3782 -14.5223
ltoes 34.7033
